# xmcd
#
# Track frame offsets:
#	150
#	8129
#	19920
#	34109
#	52732
#	67422
#	78708
#	87536
#	98185
#	112339
#	123177
#	140762
#	148594
#	156873
#	172010
#	181945
#	192586
#	208565
#	216757
#	225576
#	236772
#	249232
#	260449
#
# Disc length: 3651 seconds
#
# Revision: 1
# Processed by: cddbd v1.5.2PL0 Copyright (c) Steve Scherf et al.
# Submitted via: audiograbber 1.83.01
#
DISCID=530e4117
DTITLE=Restroom Singers - Musici
DYEAR=2002
DGENRE=Vocal
TTITLE0=Ständchen - Wir haben uns als Musici
TTITLE1=Wir kamen einst von Piemont
TTITLE2=Schifferlied
TTITLE3=Kloster Grabow
TTITLE4=Abendfrieden
TTITLE5=In einem kühlen Grunde
TTITLE6=Mrawal shamier
TTITLE7=Plovi, Plovi
TTITLE8=La Montanara
TTITLE9=L'Angelus
TTITLE10=Johnny, Johnny
TTITLE11=Georg Jones
TTITLE12=My Eveline
TTITLE13=Kentucky Babe
TTITLE14=Amin, Amin
TTITLE15=Ich bete an die Macht der Liebe
TTITLE16=Ballade der 12 Räuber
TTITLE17=Oh Mary don't you weep
TTITLE18=I want to go to heaven
TTITLE19=Jacob's Ladder
TTITLE20=When the moon comes over the mountain
TTITLE21=Down by the riverside
TTITLE22=Sentimental Jouney
EXTD=
EXTT0=
EXTT1=
EXTT2=
EXTT3=
EXTT4=
EXTT5=
EXTT6=
EXTT7=
EXTT8=
EXTT9=
EXTT10=
EXTT11=
EXTT12=
EXTT13=
EXTT14=
EXTT15=
EXTT16=
EXTT17=
EXTT18=
EXTT19=
EXTT20=
EXTT21=
EXTT22=
PLAYORDER=
